<svg xmlns="http://www.w3.org/2000/svg" viewBox="0 0 800 600"><defs><linearGradient id="g" x1="0" y1="0" x2="0" y2="1"><stop offset="0" stop-color="#f9a8d4"/><stop offset="1" stop-color="#831843"/></linearGradient></defs><rect width="800" height="600" fill="url(#g)"/><rect x="0" y="350" width="73" height="250" fill="#0b1324" opacity="0.55"/><rect x="24" y="396" width="6" height="10" fill="#fde68a" opacity="0.8"/><rect x="40" y="424" width="6" height="10" fill="#fde68a" opacity="0.8"/><rect x="8" y="452" width="6" height="10" fill="#fde68a" opacity="0.8"/><rect x="56" y="452" width="6" height="10" fill="#fde68a" opacity="0.8"/><rect x="8" y="480" width="6" height="10" fill="#fde68a" opacity="0.8"/><rect x="24" y="480" width="6" height="10" fill="#fde68a" opacity="0.8"/><rect x="8" y="508" width="6" height="10" fill="#fde68a" opacity="0.8"/><rect x="40" y="508" width="6" height="10" fill="#fde68a" opacity="0.8"/><rect x="8" y="536" width="6" height="10" fill="#fde68a" opacity="0.8"/><rect x="24" y="536" width="6" height="10" fill="#fde68a" opacity="0.8"/><rect x="56" y="536" width="6" height="10" fill="#fde68a" opacity="0.8"/><rect x="8" y="564" width="6" height="10" fill="#fde68a" opacity="0.8"/><rect x="56" y="564" width="6" height="10" fill="#fde68a" opacity="0.8"/><rect x="79" y="376" width="46" height="224" fill="#0b1324" opacity="0.55"/><rect x="87" y="394" width="6" height="10" fill="#fde68a" opacity="0.8"/><rect x="87" y="422" width="6" height="10" fill="#fde68a" opacity="0.8"/><rect x="103" y="450" width="6" height="10" fill="#fde68a" opacity="0.8"/><rect x="87" y="506" width="6" height="10" fill="#fde68a" opacity="0.8"/><rect x="103" y="506" width="6" height="10" fill="#fde68a" opacity="0.8"/><rect x="131" y="322" width="38" height="278" fill="#0b1324" opacity="0.55"/><rect x="155" y="340" width="6" height="10" fill="#fde68a" opacity="0.8"/><rect x="155" y="368" width="6" height="10" fill="#fde68a" opacity="0.8"/><rect x="155" y="396" width="6" height="10" fill="#fde68a" opacity="0.8"/><rect x="139" y="424" width="6" height="10" fill="#fde68a" opacity="0.8"/><rect x="175" y="420" width="46" height="180" fill="#0b1324" opacity="0.55"/><rect x="199" y="466" width="6" height="10" fill="#fde68a" opacity="0.8"/><rect x="199" y="522" width="6" height="10" fill="#fde68a" opacity="0.8"/><rect x="199" y="578" width="6" height="10" fill="#fde68a" opacity="0.8"/><rect x="227" y="374" width="39" height="226" fill="#0b1324" opacity="0.55"/><rect x="235" y="392" width="6" height="10" fill="#fde68a" opacity="0.8"/><rect x="251" y="420" width="6" height="10" fill="#fde68a" opacity="0.8"/><rect x="235" y="476" width="6" height="10" fill="#fde68a" opacity="0.8"/><rect x="251" y="476" width="6" height="10" fill="#fde68a" opacity="0.8"/><rect x="235" y="504" width="6" height="10" fill="#fde68a" opacity="0.8"/><rect x="251" y="504" width="6" height="10" fill="#fde68a" opacity="0.8"/><rect x="235" y="532" width="6" height="10" fill="#fde68a" opacity="0.8"/><rect x="251" y="560" width="6" height="10" fill="#fde68a" opacity="0.8"/><rect x="235" y="588" width="6" height="10" fill="#fde68a" opacity="0.8"/><rect x="272" y="273" width="68" height="327" fill="#0b1324" opacity="0.55"/><rect x="280" y="291" width="6" height="10" fill="#fde68a" opacity="0.8"/><rect x="312" y="291" width="6" height="10" fill="#fde68a" opacity="0.8"/><rect x="328" y="291" width="6" height="10" fill="#fde68a" opacity="0.8"/><rect x="296" y="319" width="6" height="10" fill="#fde68a" opacity="0.8"/><rect x="296" y="347" width="6" height="10" fill="#fde68a" opacity="0.8"/><rect x="312" y="347" width="6" height="10" fill="#fde68a" opacity="0.8"/><rect x="296" y="375" width="6" height="10" fill="#fde68a" opacity="0.8"/><rect x="280" y="403" width="6" height="10" fill="#fde68a" opacity="0.8"/><rect x="312" y="403" width="6" height="10" fill="#fde68a" opacity="0.8"/><rect x="280" y="431" width="6" height="10" fill="#fde68a" opacity="0.8"/><rect x="328" y="431" width="6" height="10" fill="#fde68a" opacity="0.8"/><rect x="328" y="459" width="6" height="10" fill="#fde68a" opacity="0.8"/><rect x="280" y="487" width="6" height="10" fill="#fde68a" opacity="0.8"/><rect x="328" y="487" width="6" height="10" fill="#fde68a" opacity="0.8"/><rect x="312" y="515" width="6" height="10" fill="#fde68a" opacity="0.8"/><rect x="296" y="543" width="6" height="10" fill="#fde68a" opacity="0.8"/><rect x="312" y="571" width="6" height="10" fill="#fde68a" opacity="0.8"/><rect x="346" y="463" width="56" height="137" fill="#0b1324" opacity="0.55"/><rect x="354" y="509" width="6" height="10" fill="#fde68a" opacity="0.8"/><rect x="370" y="537" width="6" height="10" fill="#fde68a" opacity="0.8"/><rect x="386" y="565" width="6" height="10" fill="#fde68a" opacity="0.8"/><rect x="408" y="352" width="69" height="248" fill="#0b1324" opacity="0.55"/><rect x="416" y="370" width="6" height="10" fill="#fde68a" opacity="0.8"/><rect x="432" y="370" width="6" height="10" fill="#fde68a" opacity="0.8"/><rect x="448" y="370" width="6" height="10" fill="#fde68a" opacity="0.8"/><rect x="448" y="398" width="6" height="10" fill="#fde68a" opacity="0.8"/><rect x="464" y="398" width="6" height="10" fill="#fde68a" opacity="0.8"/><rect x="464" y="426" width="6" height="10" fill="#fde68a" opacity="0.8"/><rect x="464" y="454" width="6" height="10" fill="#fde68a" opacity="0.8"/><rect x="416" y="482" width="6" height="10" fill="#fde68a" opacity="0.8"/><rect x="448" y="482" width="6" height="10" fill="#fde68a" opacity="0.8"/><rect x="432" y="510" width="6" height="10" fill="#fde68a" opacity="0.8"/><rect x="448" y="510" width="6" height="10" fill="#fde68a" opacity="0.8"/><rect x="432" y="566" width="6" height="10" fill="#fde68a" opacity="0.8"/><rect x="483" y="466" width="51" height="134" fill="#0b1324" opacity="0.55"/><rect x="491" y="484" width="6" height="10" fill="#fde68a" opacity="0.8"/><rect x="491" y="512" width="6" height="10" fill="#fde68a" opacity="0.8"/><rect x="523" y="512" width="6" height="10" fill="#fde68a" opacity="0.8"/><rect x="491" y="568" width="6" height="10" fill="#fde68a" opacity="0.8"/><rect x="523" y="568" width="6" height="10" fill="#fde68a" opacity="0.8"/><rect x="540" y="233" width="45" height="367" fill="#0b1324" opacity="0.55"/><rect x="548" y="251" width="6" height="10" fill="#fde68a" opacity="0.8"/><rect x="564" y="251" width="6" height="10" fill="#fde68a" opacity="0.8"/><rect x="548" y="335" width="6" height="10" fill="#fde68a" opacity="0.8"/><rect x="548" y="363" width="6" height="10" fill="#fde68a" opacity="0.8"/><rect x="548" y="391" width="6" height="10" fill="#fde68a" opacity="0.8"/><rect x="548" y="419" width="6" height="10" fill="#fde68a" opacity="0.8"/><rect x="564" y="447" width="6" height="10" fill="#fde68a" opacity="0.8"/><rect x="564" y="475" width="6" height="10" fill="#fde68a" opacity="0.8"/><rect x="564" y="503" width="6" height="10" fill="#fde68a" opacity="0.8"/><rect x="591" y="241" width="57" height="359" fill="#0b1324" opacity="0.55"/><rect x="599" y="259" width="6" height="10" fill="#fde68a" opacity="0.8"/><rect x="631" y="315" width="6" height="10" fill="#fde68a" opacity="0.8"/><rect x="599" y="343" width="6" height="10" fill="#fde68a" opacity="0.8"/><rect x="599" y="371" width="6" height="10" fill="#fde68a" opacity="0.8"/><rect x="631" y="399" width="6" height="10" fill="#fde68a" opacity="0.8"/><rect x="599" y="427" width="6" height="10" fill="#fde68a" opacity="0.8"/><rect x="599" y="483" width="6" height="10" fill="#fde68a" opacity="0.8"/><rect x="615" y="511" width="6" height="10" fill="#fde68a" opacity="0.8"/><rect x="615" y="539" width="6" height="10" fill="#fde68a" opacity="0.8"/><rect x="599" y="567" width="6" height="10" fill="#fde68a" opacity="0.8"/><rect x="654" y="460" width="52" height="140" fill="#0b1324" opacity="0.55"/><rect x="694" y="478" width="6" height="10" fill="#fde68a" opacity="0.8"/><rect x="678" y="506" width="6" height="10" fill="#fde68a" opacity="0.8"/><rect x="678" y="534" width="6" height="10" fill="#fde68a" opacity="0.8"/><rect x="694" y="534" width="6" height="10" fill="#fde68a" opacity="0.8"/><rect x="662" y="562" width="6" height="10" fill="#fde68a" opacity="0.8"/><rect x="694" y="562" width="6" height="10" fill="#fde68a" opacity="0.8"/><rect x="712" y="237" width="72" height="363" fill="#0b1324" opacity="0.55"/><rect x="720" y="283" width="6" height="10" fill="#fde68a" opacity="0.8"/><rect x="736" y="283" width="6" height="10" fill="#fde68a" opacity="0.8"/><rect x="752" y="283" width="6" height="10" fill="#fde68a" opacity="0.8"/><rect x="752" y="311" width="6" height="10" fill="#fde68a" opacity="0.8"/><rect x="768" y="311" width="6" height="10" fill="#fde68a" opacity="0.8"/><rect x="752" y="339" width="6" height="10" fill="#fde68a" opacity="0.8"/><rect x="768" y="339" width="6" height="10" fill="#fde68a" opacity="0.8"/><rect x="752" y="367" width="6" height="10" fill="#fde68a" opacity="0.8"/><rect x="720" y="395" width="6" height="10" fill="#fde68a" opacity="0.8"/><rect x="768" y="479" width="6" height="10" fill="#fde68a" opacity="0.8"/><rect x="720" y="507" width="6" height="10" fill="#fde68a" opacity="0.8"/><rect x="736" y="535" width="6" height="10" fill="#fde68a" opacity="0.8"/><rect x="752" y="535" width="6" height="10" fill="#fde68a" opacity="0.8"/><rect x="790" y="456" width="68" height="144" fill="#0b1324" opacity="0.55"/><rect x="798" y="474" width="6" height="10" fill="#fde68a" opacity="0.8"/><rect x="814" y="474" width="6" height="10" fill="#fde68a" opacity="0.8"/><rect x="814" y="502" width="6" height="10" fill="#fde68a" opacity="0.8"/><rect x="830" y="530" width="6" height="10" fill="#fde68a" opacity="0.8"/><rect x="798" y="558" width="6" height="10" fill="#fde68a" opacity="0.8"/><rect x="798" y="586" width="6" height="10" fill="#fde68a" opacity="0.8"/><rect x="814" y="586" width="6" height="10" fill="#fde68a" opacity="0.8"/><rect x="846" y="586" width="6" height="10" fill="#fde68a" opacity="0.8"/><text x="24" y="48" font-family="system-ui,sans-serif" font-size="22" font-weight="700" fill="#ffffff" opacity="0.9">Foto de demonstração</text></svg>